<svg width="18" height="18" viewBox="0 0 18 18" fill="none" xmlns="http://www.w3.org/2000/svg">
<path d="M9.00001 10.8375L14.5125 5.32501C14.7 5.13751 14.9188 5.04675 15.1688 5.05275C15.4188 5.05875 15.6375 5.15575 15.825 5.34375C16.0125 5.53175 16.1063 5.7505 16.1063 6C16.1063 6.2495 16.0125 6.46825 15.825 6.65625L10.0688 12.4313C9.91876 12.5813 9.75001 12.6938 9.56251 12.7688C9.37501 12.8438 9.18751 12.8813 9.00001 12.8813C8.81251 12.8813 8.62501 12.8438 8.43751 12.7688C8.25001 12.6938 8.08126 12.5813 7.93126 12.4313L2.15626 6.65626C1.96876 6.46876 1.87801 6.24676 1.88401 5.99026C1.89001 5.73376 1.98701 5.51201 2.17501 5.32501C2.36301 5.13801 2.58176 5.04426 2.83126 5.04376C3.08076 5.04326 3.29951 5.13701 3.48751 5.32501L9.00001 10.8375Z" fill="#FDFDFD"/>
</svg>
